<svg xmlns="http://www.w3.org/2000/svg" xmlns:xlink="http://www.w3.org/1999/xlink" width="500" zoomAndPan="magnify" viewBox="0 0 375 374.999991" height="500" preserveAspectRatio="xMidYMid meet" version="1.0"><defs><g/><clipPath id="89e835a07a"><rect x="0" width="259" y="0" height="92"/></clipPath></defs><path fill="#ffffff" d="M 77.375 200.574219 L 8.953125 201.800781 C 7.539062 201.828125 6.394531 200.691406 6.4375 199.3125 L 8.765625 121.292969 C 8.804688 120.003906 9.871094 118.964844 11.191406 118.941406 L 72.039062 117.847656 C 73.355469 117.828125 74.460938 118.820312 74.546875 120.109375 L 79.789062 197.988281 C 79.890625 199.371094 78.785156 200.546875 77.375 200.574219 Z M 77.375 200.574219 " fill-opacity="1" fill-rule="evenodd"/><path fill="#a855f7" d="M 77.433594 199.925781 L 10.347656 199.925781 C 8.960938 199.925781 7.863281 198.792969 7.929688 197.441406 L 11.644531 121.027344 C 11.703125 119.757812 12.769531 118.765625 14.058594 118.765625 L 73.714844 118.765625 C 75.003906 118.765625 76.070312 119.757812 76.132812 121.027344 L 79.84375 197.441406 C 79.910156 198.792969 78.8125 199.925781 77.433594 199.925781 Z M 77.433594 199.925781 " fill-opacity="1" fill-rule="evenodd"/><path fill="#ffffff" d="M 43.886719 158.1875 C 32.640625 158.1875 23.34375 149.832031 22.132812 139.117188 C 21.988281 137.847656 22.988281 136.738281 24.289062 136.738281 C 25.398438 136.738281 26.320312 137.5625 26.445312 138.648438 C 27.421875 147.234375 34.875 153.933594 43.886719 153.933594 C 52.898438 153.933594 60.351562 147.234375 61.324219 138.648438 C 61.445312 137.5625 62.367188 136.738281 63.480469 136.738281 C 64.78125 136.738281 65.78125 137.847656 65.632812 139.117188 C 64.429688 149.824219 55.136719 158.1875 43.886719 158.1875 Z M 43.886719 158.1875 " fill-opacity="1" fill-rule="nonzero"/><g transform="matrix(1, 0, 0, 1, 97, 115)"><g clip-path="url(#89e835a07a)"><g fill="#f8fafc" fill-opacity="1"><g transform="translate(0.606155, 72.294271)"><g><path d="M 22.75 0.4375 C 18.894531 0.4375 15.203125 -0.175781 11.671875 -1.40625 C 8.140625 -2.644531 5.410156 -4.273438 3.484375 -6.296875 L 5.625 -10.515625 C 7.507812 -8.640625 10.003906 -7.117188 13.109375 -5.953125 C 16.222656 -4.796875 19.4375 -4.21875 22.75 -4.21875 C 27.394531 -4.21875 30.875 -5.066406 33.1875 -6.765625 C 35.507812 -8.472656 36.671875 -10.6875 36.671875 -13.40625 C 36.671875 -15.476562 36.039062 -17.132812 34.78125 -18.375 C 33.519531 -19.613281 31.976562 -20.566406 30.15625 -21.234375 C 28.332031 -21.898438 25.789062 -22.625 22.53125 -23.40625 C 18.625 -24.394531 15.507812 -25.347656 13.1875 -26.265625 C 10.863281 -27.179688 8.875 -28.578125 7.21875 -30.453125 C 5.5625 -32.328125 4.734375 -34.867188 4.734375 -38.078125 C 4.734375 -40.703125 5.425781 -43.085938 6.8125 -45.234375 C 8.195312 -47.378906 10.320312 -49.09375 13.1875 -50.375 C 16.050781 -51.664062 19.609375 -52.3125 23.859375 -52.3125 C 26.816406 -52.3125 29.71875 -51.898438 32.5625 -51.078125 C 35.40625 -50.265625 37.863281 -49.144531 39.9375 -47.71875 L 38.078125 -43.34375 C 35.910156 -44.78125 33.59375 -45.851562 31.125 -46.5625 C 28.65625 -47.28125 26.234375 -47.640625 23.859375 -47.640625 C 19.316406 -47.640625 15.894531 -46.757812 13.59375 -45 C 11.300781 -43.25 10.15625 -40.992188 10.15625 -38.234375 C 10.15625 -36.160156 10.78125 -34.492188 12.03125 -33.234375 C 13.289062 -31.972656 14.875 -31.007812 16.78125 -30.34375 C 18.6875 -29.675781 21.242188 -28.945312 24.453125 -28.15625 C 28.253906 -27.21875 31.328125 -26.289062 33.671875 -25.375 C 36.015625 -24.457031 38 -23.070312 39.625 -21.21875 C 41.257812 -19.375 42.078125 -16.867188 42.078125 -13.703125 C 42.078125 -11.085938 41.375 -8.703125 39.96875 -6.546875 C 38.5625 -4.398438 36.398438 -2.695312 33.484375 -1.4375 C 30.578125 -0.1875 27 0.4375 22.75 0.4375 Z M 22.75 0.4375 "/></g></g></g><g fill="#f8fafc" fill-opacity="1"><g transform="translate(41.052611, 72.294271)"><g><path d="M 27.1875 -39.265625 C 32.082031 -39.265625 35.972656 -37.84375 38.859375 -35 C 41.753906 -32.164062 43.203125 -28.03125 43.203125 -22.59375 L 43.203125 0 L 37.9375 0 L 37.9375 -22.078125 C 37.9375 -26.128906 36.921875 -29.21875 34.890625 -31.34375 C 32.867188 -33.46875 29.984375 -34.53125 26.234375 -34.53125 C 22.035156 -34.53125 18.710938 -33.28125 16.265625 -30.78125 C 13.816406 -28.289062 12.59375 -24.847656 12.59375 -20.453125 L 12.59375 0 L 7.328125 0 L 7.328125 -54.984375 L 12.59375 -54.984375 L 12.59375 -32.15625 C 14.03125 -34.425781 16.003906 -36.175781 18.515625 -37.40625 C 21.035156 -38.644531 23.925781 -39.265625 27.1875 -39.265625 Z M 27.1875 -39.265625 "/></g></g></g><g fill="#f8fafc" fill-opacity="1"><g transform="translate(86.091996, 72.294271)"><g><path d="M 23.265625 0.375 C 19.515625 0.375 16.128906 -0.472656 13.109375 -2.171875 C 10.097656 -3.878906 7.726562 -6.238281 6 -9.25 C 4.269531 -12.269531 3.40625 -15.679688 3.40625 -19.484375 C 3.40625 -23.285156 4.269531 -26.691406 6 -29.703125 C 7.726562 -32.722656 10.097656 -35.070312 13.109375 -36.75 C 16.128906 -38.425781 19.515625 -39.265625 23.265625 -39.265625 C 27.015625 -39.265625 30.394531 -38.425781 33.40625 -36.75 C 36.425781 -35.070312 38.785156 -32.722656 40.484375 -29.703125 C 42.191406 -26.691406 43.046875 -23.285156 43.046875 -19.484375 C 43.046875 -15.679688 42.191406 -12.269531 40.484375 -9.25 C 38.785156 -6.238281 36.425781 -3.878906 33.40625 -2.171875 C 30.394531 -0.472656 27.015625 0.375 23.265625 0.375 Z M 23.265625 -4.296875 C 26.035156 -4.296875 28.519531 -4.925781 30.71875 -6.1875 C 32.914062 -7.445312 34.628906 -9.238281 35.859375 -11.5625 C 37.097656 -13.882812 37.71875 -16.523438 37.71875 -19.484375 C 37.71875 -22.453125 37.097656 -25.09375 35.859375 -27.40625 C 34.628906 -29.726562 32.914062 -31.519531 30.71875 -32.78125 C 28.519531 -34.039062 26.035156 -34.671875 23.265625 -34.671875 C 20.492188 -34.671875 18.007812 -34.039062 15.8125 -32.78125 C 13.613281 -31.519531 11.882812 -29.726562 10.625 -27.40625 C 9.375 -25.09375 8.75 -22.453125 8.75 -19.484375 C 8.75 -16.523438 9.375 -13.882812 10.625 -11.5625 C 11.882812 -9.238281 13.613281 -7.445312 15.8125 -6.1875 C 18.007812 -4.925781 20.492188 -4.296875 23.265625 -4.296875 Z M 23.265625 -4.296875 "/></g></g></g><g fill="#f8fafc" fill-opacity="1"><g transform="translate(127.427416, 72.294271)"><g><path d="M 27.421875 -39.265625 C 31.066406 -39.265625 34.367188 -38.4375 37.328125 -36.78125 C 40.296875 -35.132812 42.617188 -32.800781 44.296875 -29.78125 C 45.984375 -26.769531 46.828125 -23.335938 46.828125 -19.484375 C 46.828125 -15.585938 45.984375 -12.128906 44.296875 -9.109375 C 42.617188 -6.097656 40.3125 -3.765625 37.375 -2.109375 C 34.4375 -0.453125 31.117188 0.375 27.421875 0.375 C 24.253906 0.375 21.398438 -0.28125 18.859375 -1.59375 C 16.316406 -2.90625 14.226562 -4.816406 12.59375 -7.328125 L 12.59375 14.375 L 7.328125 14.375 L 7.328125 -38.96875 L 12.375 -38.96875 L 12.375 -31.265625 C 13.957031 -33.835938 16.046875 -35.8125 18.640625 -37.1875 C 21.234375 -38.570312 24.160156 -39.265625 27.421875 -39.265625 Z M 27.046875 -4.296875 C 29.765625 -4.296875 32.234375 -4.925781 34.453125 -6.1875 C 36.671875 -7.445312 38.410156 -9.238281 39.671875 -11.5625 C 40.929688 -13.882812 41.5625 -16.523438 41.5625 -19.484375 C 41.5625 -22.453125 40.929688 -25.082031 39.671875 -27.375 C 38.410156 -29.675781 36.671875 -31.46875 34.453125 -32.75 C 32.234375 -34.03125 29.765625 -34.671875 27.046875 -34.671875 C 24.273438 -34.671875 21.789062 -34.03125 19.59375 -32.75 C 17.394531 -31.46875 15.664062 -29.675781 14.40625 -27.375 C 13.144531 -25.082031 12.515625 -22.453125 12.515625 -19.484375 C 12.515625 -16.523438 13.144531 -13.882812 14.40625 -11.5625 C 15.664062 -9.238281 17.394531 -7.445312 19.59375 -6.1875 C 21.789062 -4.925781 24.273438 -4.296875 27.046875 -4.296875 Z M 27.046875 -4.296875 "/></g></g></g><g fill="#f8fafc" fill-opacity="1"><g transform="translate(172.540899, 72.294271)"><g/></g></g><g fill="#f8fafc" fill-opacity="1"><g transform="translate(186.864676, 72.294271)"><g><path d="M 40.3125 -11.109375 L 16.21875 -11.109375 L 11.625 0 L -0.671875 0 L 22.453125 -51.859375 L 34.3125 -51.859375 L 57.5 0 L 44.90625 0 Z M 36.53125 -20.234375 L 28.296875 -40.078125 L 20.078125 -20.234375 Z M 36.53125 -20.234375 "/></g></g></g><g fill="#f8fafc" fill-opacity="1"><g transform="translate(238.497153, 72.294271)"><g><path d="M 6.15625 -51.859375 L 18.15625 -51.859375 L 18.15625 0 L 6.15625 0 Z M 6.15625 -51.859375 "/></g></g></g></g></g></svg>